<?xml version="1.0" encoding="UTF-8"?>
<!DOCTYPE svg PUBLIC "-//W3C//DTD SVG 1.1//EN" "http://www.w3.org/Graphics/SVG/1.1/DTD/svg11.dtd">
<svg xmlns="http://www.w3.org/2000/svg" xmlns:xlink="http://www.w3.org/1999/xlink" version="1.1" width="74px" height="34px" viewBox="-0.5 -0.5 74 34"><defs/><g><path d="M 4.4 24.4 L 4.4 8.4" fill="none" stroke="#ff1717" stroke-width="4" stroke-miterlimit="10" pointer-events="stroke"/><ellipse cx="4.4" cy="28.4" rx="4" ry="4" fill="rgb(255, 255, 255)" stroke="#ff1f17" stroke-width="1.2" pointer-events="all"/><path d="M 23.6 14 L 33.2 6.8" fill="none" stroke="#ff1717" stroke-width="4" stroke-miterlimit="10" pointer-events="stroke"/><ellipse cx="20.4" cy="16.4" rx="4" ry="4" fill="rgb(255, 255, 255)" stroke="#ff1f17" stroke-width="1.2" pointer-events="all"/><path d="M 7.6 6.8 L 17.2 14" fill="none" stroke="#ff1717" stroke-width="4" stroke-miterlimit="10" pointer-events="stroke"/><ellipse cx="4.4" cy="4.4" rx="4" ry="4" fill="rgb(255, 255, 255)" stroke="#ff1f17" stroke-width="1.2" pointer-events="all"/><path d="M 36.4 8.4 L 36.4 24.4" fill="none" stroke="#ff1717" stroke-width="4" stroke-miterlimit="10" pointer-events="stroke"/><ellipse cx="36.4" cy="4.4" rx="4" ry="4" fill="rgb(255, 255, 255)" stroke="#ff1f17" stroke-width="1.2" pointer-events="all"/><ellipse cx="36.4" cy="28.4" rx="4" ry="4" fill="rgb(255, 255, 255)" stroke="#0066cc" stroke-width="1.2" pointer-events="all"/><path d="M 40.4 28.4 L 64.4 28.4" fill="none" stroke="#0066cc" stroke-width="4" stroke-miterlimit="10" pointer-events="stroke"/><ellipse cx="68.4" cy="28.4" rx="4" ry="4" fill="rgb(255, 255, 255)" stroke="#0066cc" stroke-width="1.2" pointer-events="all"/><path d="M 55.6 14 L 65.2 6.8" fill="none" stroke="#0066cc" stroke-width="4" stroke-miterlimit="10" pointer-events="stroke"/><ellipse cx="52.4" cy="16.4" rx="4" ry="4" fill="rgb(255, 255, 255)" stroke="#0066cc" stroke-width="1.2" pointer-events="all"/><path d="M 55.6 18.8 L 65.2 26" fill="none" stroke="#0066cc" stroke-width="4" stroke-miterlimit="10" pointer-events="stroke"/><ellipse cx="68.4" cy="4.4" rx="4" ry="4" fill="rgb(255, 255, 255)" stroke="#0066cc" stroke-width="1.2" pointer-events="all"/></g></svg>